<svg width="49" height="56" viewBox="0 0 49 56" fill="none" xmlns="http://www.w3.org/2000/svg">
<path d="M17.921 0.00390625C17.6561 0.00390625 17.4021 0.109127 17.2148 0.296419C17.0275 0.483712 16.9223 0.737736 16.9223 1.00261V15.9926H1.9323C1.80099 15.9926 1.67097 16.0185 1.54967 16.0688C1.42838 16.1191 1.3182 16.1928 1.22544 16.2858C1.13268 16.3787 1.05915 16.489 1.00907 16.6104C0.958996 16.7318 0.933347 16.8619 0.933596 16.9932V54.9401C0.933596 55.2049 1.03882 55.459 1.22611 55.6463C1.4134 55.8336 1.66742 55.9388 1.9323 55.9388H31.95C32.0813 55.939 32.2114 55.9134 32.3328 55.8633C32.4541 55.8132 32.5645 55.7397 32.6574 55.6469C32.7503 55.5542 32.8241 55.444 32.8744 55.3227C32.9247 55.2014 32.9506 55.0714 32.9506 54.9401V39.9501H47.9406C48.2054 39.9501 48.4594 39.8449 48.6467 39.6576C48.834 39.4703 48.9393 39.2163 48.9393 38.9514V1.0045C48.9393 0.739624 48.834 0.4856 48.6467 0.298307C48.4594 0.111014 48.2054 0.00579447 47.9406 0.00579447L17.921 0.00390625Z" fill="#3B3F4D"/>
<path d="M2.98633 17.8984H30.9273V53.9574H2.98633V17.8984Z" fill="#E5E5E5"/>
<path d="M7.99089 46.9724C7.72602 46.9724 7.472 47.0776 7.2847 47.2649C7.09741 47.4522 6.99219 47.7062 6.99219 47.9711C6.99319 48.2353 7.09885 48.4883 7.28603 48.6748C7.47322 48.8613 7.72667 48.966 7.99089 48.966H25.9826C26.2468 48.966 26.5003 48.8613 26.6875 48.6748C26.8747 48.4883 26.9803 48.2353 26.9813 47.9711C26.9813 47.7062 26.8761 47.4522 26.6888 47.2649C26.5015 47.0776 26.2475 46.9724 25.9826 46.9724H7.99089ZM7.99089 43.0078C7.85958 43.0078 7.72956 43.0337 7.60827 43.084C7.48698 43.1343 7.3768 43.208 7.28403 43.3009C7.19127 43.3939 7.11775 43.5042 7.06767 43.6256C7.01759 43.747 6.99194 43.877 6.99219 44.0084C6.99219 44.2732 7.09741 44.5273 7.2847 44.7145C7.472 44.9018 7.72602 45.0071 7.99089 45.0071H25.9826C26.2475 45.0071 26.5015 44.9018 26.6888 44.7145C26.8761 44.5273 26.9813 44.2732 26.9813 44.0084C26.9816 43.877 26.9559 43.747 26.9059 43.6256C26.8558 43.5042 26.7823 43.3939 26.6895 43.3009C26.5967 43.208 26.4865 43.1343 26.3653 43.084C26.244 43.0337 26.1139 43.0078 25.9826 43.0078H7.99089ZM7.99089 39.0432C7.72602 39.0432 7.472 39.1484 7.2847 39.3357C7.09741 39.523 6.99219 39.777 6.99219 40.0419C6.99219 40.3067 7.09741 40.5608 7.2847 40.7481C7.472 40.9353 7.72602 41.0406 7.99089 41.0406H25.9826C26.2475 41.0406 26.5015 40.9353 26.6888 40.7481C26.8761 40.5608 26.9813 40.3067 26.9813 40.0419C26.9813 39.777 26.8761 39.523 26.6888 39.3357C26.5015 39.1484 26.2475 39.0432 25.9826 39.0432H7.99089ZM16.0334 33.0019C15.7698 33.0029 15.5173 33.108 15.331 33.2944C15.1446 33.4807 15.0394 33.7332 15.0384 33.9968C15.0384 34.261 15.1431 34.5145 15.3296 34.7016C15.5161 34.8888 15.7692 34.9945 16.0334 34.9955H26.0393C26.3041 34.9955 26.5582 34.8903 26.7455 34.703C26.9328 34.5157 27.038 34.2617 27.038 33.9968C27.037 33.7326 26.9313 33.4795 26.7441 33.293C26.5569 33.1066 26.3035 33.0019 26.0393 33.0019H16.0334ZM16.0334 29.0373C15.7692 29.0383 15.5161 29.1439 15.3296 29.3311C15.1431 29.5183 15.0384 29.7717 15.0384 30.036C15.0384 30.3002 15.1431 30.5536 15.3296 30.7408C15.5161 30.928 15.7692 31.0337 16.0334 31.0347H26.0393C26.3041 31.0347 26.5582 30.9294 26.7455 30.7422C26.9328 30.5549 27.038 30.3008 27.038 30.036C27.038 29.7711 26.9328 29.5171 26.7455 29.3298C26.5582 29.1425 26.3041 29.0373 26.0393 29.0373H16.0334ZM16.0334 25.0727C15.7692 25.0737 15.5161 25.1793 15.3296 25.3665C15.1431 25.5537 15.0384 25.8071 15.0384 26.0714C15.0384 26.3356 15.1431 26.589 15.3296 26.7762C15.5161 26.9634 15.7692 27.0691 16.0334 27.0701H26.0393C26.3041 27.0701 26.5582 26.9648 26.7455 26.7776C26.9328 26.5903 27.038 26.3362 27.038 26.0714C27.038 25.8065 26.9328 25.5525 26.7455 25.3652C26.5582 25.1779 26.3041 25.0727 26.0393 25.0727H16.0334ZM9.99207 22.996C9.86076 22.996 9.73074 23.0219 9.60945 23.0722C9.48816 23.1225 9.37798 23.1962 9.28521 23.2891C9.19245 23.3821 9.11893 23.4924 9.06885 23.6138C9.01877 23.7352 8.99312 23.8652 8.99337 23.9966V24.9953H7.99467C7.7298 24.9953 7.47577 25.1005 7.28848 25.2878C7.10119 25.4751 6.99597 25.7291 6.99597 25.994V29.9963C6.99597 30.2612 7.10119 30.5152 7.28848 30.7025C7.47577 30.8898 7.7298 30.995 7.99467 30.995H10.9964V32.9962H7.99467C7.73045 32.9962 7.477 33.1009 7.28981 33.2874C7.10263 33.4739 6.99696 33.7269 6.99597 33.9911C6.99597 34.256 7.10119 34.51 7.28848 34.6973C7.47577 34.8846 7.7298 34.9898 7.99467 34.9898H8.99337V35.9904C8.99337 36.2553 9.09859 36.5093 9.28588 36.6966C9.47318 36.8839 9.7272 36.9891 9.99207 36.9891C10.1234 36.9894 10.2535 36.9637 10.3748 36.9136C10.4962 36.8636 10.6065 36.79 10.6995 36.6973C10.7924 36.6045 10.8662 36.4943 10.9165 36.373C10.9668 36.2518 10.9927 36.1217 10.9927 35.9904V34.9898H11.9914C12.2562 34.9898 12.5103 34.8846 12.6976 34.6973C12.8848 34.51 12.9901 34.256 12.9901 33.9911V29.9888C12.9901 29.7239 12.8848 29.4699 12.6976 29.2826C12.5103 29.0953 12.2562 28.9901 11.9914 28.9901H8.98959V26.9889H11.9914C12.2562 26.9889 12.5103 26.8837 12.6976 26.6964C12.8848 26.5091 12.9901 26.2551 12.9901 25.9902C12.9901 25.7253 12.8848 25.4713 12.6976 25.284C12.5103 25.0967 12.2562 24.9915 11.9914 24.9915H10.9927V23.9928C10.9929 23.8613 10.9672 23.7311 10.917 23.6096C10.8668 23.4881 10.7931 23.3777 10.7001 23.2847C10.6072 23.1917 10.4968 23.118 10.3753 23.0678C10.2538 23.0177 10.1235 22.9919 9.99207 22.9922V22.996Z" fill="#3B3F4D"/>
<path d="M19.0534 2.00391H46.9945V38.0629H33.0051V17.1072C33.0051 16.8423 32.8998 16.5883 32.7126 16.401C32.5253 16.2137 32.2712 16.1084 32.0064 16.1084H19.0176L19.0534 2.00391Z" fill="#BAE3F3"/>
</svg>
