<svg width="50" height="50" viewBox="0 0 50 50" fill="none" xmlns="http://www.w3.org/2000/svg">
<path d="M18.1866 48.5L15.9067 50L7.95334 44.7368L0 50V0H47.72V18.9474C45.334 17.9474 42.4178 18.4211 40.403 20.3947L18.1866 42.4474V48.5ZM37.1156 10.5263H10.6045V15.7895H37.1156V10.5263ZM31.8134 21.0526H10.6045V26.3158H31.8134V21.0526ZM23.4889 44.6316V50H28.8971L45.1485 33.8684L39.7667 28.5L23.4889 44.6316ZM49.6023 27.5526L46.1029 24.0789C46.0441 24.0121 45.9719 23.9583 45.8908 23.9211C45.645 23.752 45.3489 23.6704 45.0505 23.6895C44.7521 23.7086 44.4689 23.8273 44.2471 24.0263L44.1941 24.0789L41.596 26.6579L47.0042 32.0263L49.6023 29.4474C50.1326 28.9474 50.1326 28.0789 49.6023 27.5526Z" fill="black"/>
</svg>
