<svg width="50" height="50" viewBox="0 0 50 50" fill="none" xmlns="http://www.w3.org/2000/svg">
<path d="M14.9288 0C12.2578 0 9.69615 1.12882 7.80744 3.13814C5.91873 5.14746 4.85766 7.87268 4.85766 10.7143V14.8071C4.85762 16.1339 4.51023 17.4344 3.85443 18.563C3.19864 19.6915 2.26035 20.6034 1.14476 21.1964L0 21.8036V28.1964L1.14476 28.8036C2.26086 29.3969 3.19948 30.3094 3.85532 31.4386C4.51115 32.5678 4.85824 33.8691 4.85766 35.1964V39.2857C4.85766 42.1273 5.91873 44.8525 7.80744 46.8619C9.69615 48.8712 12.2578 50 14.9288 50H21.6429V42.8571H14.9288C14.0385 42.8571 13.1846 42.4809 12.555 41.8111C11.9255 41.1413 11.5718 40.2329 11.5718 39.2857V35.1929C11.5719 33.2951 11.2167 31.4163 10.5267 29.6662C9.83679 27.9161 8.82599 26.3299 7.55338 25C8.82599 23.6701 9.83679 22.0838 10.5267 20.3338C11.2167 18.5837 11.5719 16.7049 11.5718 14.8071V10.7143C11.5718 9.76708 11.9255 8.85868 12.555 8.1889C13.1846 7.51913 14.0385 7.14286 14.9288 7.14286H21.6429V0H14.9288ZM35.0712 50C37.7422 50 40.3039 48.8712 42.1926 46.8619C44.0813 44.8525 45.1423 42.1273 45.1423 39.2857V35.1929C45.1424 33.8661 45.4898 32.5656 46.1456 31.437C46.8014 30.3085 47.7396 29.3966 48.8552 28.8036L50 28.1964V21.8036L48.8552 21.1964C47.7391 20.6031 46.8005 19.6906 46.1447 18.5614C45.4889 17.4322 45.1418 16.1309 45.1423 14.8036V10.7143C45.1423 7.87268 44.0813 5.14746 42.1926 3.13814C40.3039 1.12882 37.7422 0 35.0712 0H28.3571V7.14286H35.0712C35.9615 7.14286 36.8154 7.51913 37.445 8.1889C38.0745 8.85868 38.4282 9.76708 38.4282 10.7143V14.8071C38.4281 16.7049 38.7833 18.5837 39.4733 20.3338C40.1632 22.0838 41.174 23.6701 42.4466 25C41.174 26.3299 40.1632 27.9161 39.4733 29.6662C38.7833 31.4163 38.4281 33.2951 38.4282 35.1929V39.2857C38.4282 40.2329 38.0745 41.1413 37.445 41.8111C36.8154 42.4809 35.9615 42.8571 35.0712 42.8571H28.3571V50H35.0712Z" fill="black"/>
</svg>
